<svg width="40" height="40" xmlns="http://www.w3.org/2000/svg" version="1.1" viewBox="0 0 40 40"><g><g id="#70c6beff"><path id="svg_2" d="M20.267 4.421c0.38 -0.043 0.775 0.042 1.092 0.258 0.478 0.309 0.816 0.78 1.102 1.262 1.297 2.173 2.602 4.342 3.898 6.516C28.086 15.365 29.812 18.272 31.534 21.182c1.191 2.013 2.385 4.024 3.584 6.033 0.79 1.342 1.604 2.669 2.359 4.031 0.325 0.57 0.504 1.228 0.477 1.886 -0.019 0.509 -0.111 1.031 -0.378 1.472 -0.375 0.622 -1.003 1.061 -1.684 1.289 -0.363 0.131 -0.744 0.219 -1.132 0.22 -4.227 -0.002 -8.455 0.001 -12.682 0.001 -0.364 -0.009 -0.733 -0.051 -1.074 -0.183 -0.25 -0.106 -0.495 -0.237 -0.69 -0.429 -0.333 -0.33 -0.549 -0.797 -0.491 -1.273 0.03 -0.332 0.111 -0.659 0.248 -0.964 0.133 -0.312 0.319 -0.596 0.481 -0.894 0.707 -1.261 1.448 -2.503 2.218 -3.727 0.247 -0.385 0.461 -0.801 0.803 -1.114 0.363 -0.332 0.818 -0.592 1.317 -0.626 0.401 -0.017 0.795 0.122 1.129 0.337 0.377 0.221 0.674 0.589 0.773 1.019 0.143 0.543 -0.011 1.114 -0.241 1.611 -0.258 0.564 -0.627 1.076 -0.825 1.667 -0.036 0.135 -0.085 0.304 0.015 0.423 0.102 0.096 0.243 0.134 0.376 0.167 0.383 0.085 0.779 0.063 1.169 0.066 1.438 0 2.875 0 4.313 0 0.285 -0.005 0.57 0.01 0.854 -0.007 0.205 -0.024 0.429 -0.057 0.589 -0.201 0.105 -0.093 0.119 -0.251 0.079 -0.379 -0.088 -0.283 -0.238 -0.541 -0.387 -0.795 -3.834 -6.547 -7.646 -13.106 -11.519 -19.629 -0.127 -0.21 -0.235 -0.437 -0.416 -0.606 -0.089 -0.086 -0.222 -0.135 -0.344 -0.099 -0.104 0.037 -0.174 0.129 -0.243 0.21 -0.171 0.218 -0.323 0.449 -0.464 0.688 -0.667 1.085 -1.306 2.187 -1.96 3.279 -3.767 6.34 -7.534 12.679 -11.301 19.019 -0.234 0.43 -0.482 0.852 -0.753 1.26 -0.238 0.35 -0.527 0.678 -0.899 0.889 -0.439 0.254 -0.981 0.354 -1.472 0.209 -0.359 -0.111 -0.706 -0.291 -0.963 -0.57 -0.325 -0.322 -0.469 -0.793 -0.453 -1.244 0.017 -0.475 0.175 -0.937 0.415 -1.345 2.287 -3.885 4.588 -7.761 6.899 -11.632 1.188 -2.006 2.372 -4.016 3.567 -6.018 1.209 -2.029 2.421 -4.056 3.624 -6.088 0.672 -1.144 1.348 -2.286 2.054 -3.41 0.217 -0.356 0.498 -0.676 0.836 -0.922 0.277 -0.189 0.588 -0.351 0.928 -0.381" fill="#70c6be"/></g><g id="#1ba0d8ff"><path id="svg_3" d="M20.075 19.437c0.57 -0.092 1.173 0.044 1.645 0.376 0.358 0.277 0.607 0.691 0.679 1.139 0.049 0.341 0.016 0.695 -0.11 1.017 -0.096 0.279 -0.235 0.541 -0.389 0.793 -2.197 3.693 -4.393 7.386 -6.59 11.078 -0.281 0.462 -0.537 0.942 -0.861 1.376 -0.235 0.291 -0.53 0.538 -0.869 0.699 -0.718 0.382 -1.655 0.149 -2.201 -0.426 -0.277 -0.278 -0.439 -0.659 -0.46 -1.049 -0.031 -0.404 0.058 -0.812 0.241 -1.172 0.161 -0.35 0.351 -0.685 0.549 -1.015 0.965 -1.624 1.922 -3.254 2.885 -4.88 1.318 -2.236 2.657 -4.458 3.983 -6.689 0.141 -0.254 0.317 -0.488 0.514 -0.7 0.266 -0.27 0.604 -0.489 0.984 -0.548" fill="#1ba0d8"/></g></g></svg>