<svg width="41" height="41" viewBox="0 0 33 33" fill="none" xmlns="http://www.w3.org/2000/svg">
<rect x="0.5" y="0.5" width="32" height="32" rx="4.41379" fill="#0057CE"/>
<path d="M21.1524 15.9955L21.1528 15.9952C21.6575 15.7068 22.1284 15.5048 22.6544 15.3242L22.6551 15.324C23.15 15.1544 23.6457 15.0169 24.1325 14.896C24.6186 14.7749 25.1063 14.6728 25.5706 14.5755L25.5802 14.5735L25.5832 14.5729C26.0708 14.4707 26.4515 14.391 26.8125 14.256C28.5645 13.5981 29.6127 11.8382 29.3589 10.02C29.105 8.20021 27.6115 6.78319 25.7406 6.61882C24.8977 6.54553 24.0482 6.73844 23.2106 7.1213L23.2105 7.12136C22.375 7.50314 21.5924 8.05407 20.899 8.70137L20.8979 8.70234C19.496 10.0076 18.4452 11.6994 17.8008 13.5194L17.8007 13.5195C17.1529 15.3485 16.9083 17.3229 17.0619 19.2633L21.1524 15.9955ZM21.1524 15.9955C19.5022 16.9395 18.2411 18.3956 17.4835 20.0801L21.1524 15.9955ZM17.2446 20.6631C17.3175 20.4665 17.3972 20.2721 17.4835 20.0802L17.2446 20.6631ZM17.2446 20.6631C17.1599 20.2 17.0992 19.7317 17.062 19.2636L17.2446 20.6631Z" fill="white" stroke="white" stroke-width="2.2069"/>
<path d="M20.7808 19.2998C20.7394 19.7389 20.8842 20.1827 21.1928 20.5073C21.5014 20.8318 21.9373 21.0036 22.3335 21.1564C22.7662 21.3218 23.14 21.457 23.5441 21.6909C23.9291 21.9136 24.2696 22.1904 24.5543 22.5325C25.7252 23.9309 25.6171 25.9831 24.3078 27.2558C22.9985 28.5286 20.9223 28.597 19.5303 27.4149C19.1756 27.1127 18.8606 26.7245 18.6012 26.3443C18.2067 23.8147 18.9719 21.1643 20.7808 19.2998Z" fill="white"/>
<path d="M20.773 18.5155L21.1691 18.9079C21.5275 19.263 21.5617 19.6639 21.5762 19.9011C21.5862 20.0626 21.5943 20.1169 21.5969 20.1315C21.8062 20.349 22.1192 20.4824 22.5312 20.6413C22.5674 20.6551 22.6036 20.6689 22.6398 20.6827C23.0238 20.8288 23.4093 20.9754 23.8204 21.2133L20.773 18.5155ZM20.773 18.5155L20.3848 18.9156M20.773 18.5155L20.3848 18.9156M20.3848 18.9156C18.448 20.912 17.6365 23.7392 18.0561 26.4293L18.0753 26.5523L18.1454 26.6551C18.4206 27.0586 18.7672 27.4896 19.1725 27.8349L19.1732 27.8355M20.3848 18.9156L19.1732 27.8355M19.1732 27.8355C20.7816 29.2013 23.1788 29.1226 24.6923 27.6515C26.2078 26.1783 26.3344 23.7996 24.9779 22.1789M19.1732 27.8355L24.9779 22.1789M24.9779 22.1789C24.6475 21.7823 24.2555 21.4651 23.8205 21.2134L24.9779 22.1789Z" stroke="#0057CE" stroke-width="1.10345"/>
<path d="M6.80249 9.34173L6.80231 9.34173C5.34721 9.34292 4.08469 10.3096 3.71258 11.6818L3.71252 11.682C3.34093 13.0512 3.94121 14.5037 5.195 15.2205L5.19679 15.2215C5.60334 15.4549 6.02975 15.5681 6.61801 15.6546C6.99876 15.7102 7.35161 15.7432 7.7334 15.7789C7.96684 15.8007 8.21109 15.8235 8.47916 15.8531M6.80249 9.34173L4.64734 16.1784C5.22643 16.5109 5.80869 16.6509 6.45777 16.7464C6.86175 16.8054 7.26769 16.8436 7.67349 16.8817C7.90212 16.9033 8.13071 16.9248 8.35889 16.95C8.97297 17.0168 9.63955 17.1139 10.2298 17.3207C10.5336 17.4273 10.8152 17.5609 11.0825 17.7423C11.3498 17.9236 11.5741 18.1384 11.7888 18.3754C12.5119 19.1773 13.0542 20.1118 13.391 21.1172C13.5503 20.4564 13.6439 19.7692 13.6755 19.0928M6.80249 9.34173C8.03949 9.34051 9.35831 10.0402 10.3992 10.9529L6.80249 9.34173ZM8.47916 15.8531C8.47949 15.8532 8.47981 15.8532 8.48014 15.8532L8.3589 16.9498L8.47825 15.853C8.47855 15.853 8.47885 15.8531 8.47916 15.8531ZM8.47916 15.8531C9.1068 15.9214 9.8788 16.0285 10.5947 16.2793L10.595 16.2794C10.9719 16.4116 11.3423 16.5851 11.7021 16.8292C12.068 17.0775 12.3585 17.3607 12.6066 17.6345L12.6083 17.6365C13.0153 18.0878 13.3722 18.5761 13.6755 19.0928M13.6755 19.0928C13.6824 18.9453 13.6864 18.7983 13.6874 18.6523C13.6975 17.2011 13.4262 15.7558 12.8681 14.4259M13.6755 19.0928C14.041 19.7155 14.3288 20.3795 14.5328 21.07C14.7026 20.2677 14.7852 19.4473 14.7909 18.6602L12.8681 14.4259M12.8681 14.4259C12.3122 13.1015 11.4715 11.8939 10.3995 10.9531L12.8681 14.4259Z" fill="white" stroke="white" stroke-width="2.2069"/>
<path d="M9.01357 21.839C8.93643 21.8954 8.85009 21.9559 8.75987 22.0192C8.50401 22.1985 8.21685 22.3998 8.01926 22.5915C7.23336 23.3551 7.07268 24.5483 7.62949 25.4869C8.18631 26.4271 9.31584 26.8726 10.3738 26.5671C10.9576 26.3985 11.4524 26.0183 11.8453 25.584C12.2431 25.1449 12.566 24.6231 12.8206 24.0949L9.01357 21.839ZM11.0205 20.8279C11.5794 21.7655 11.9112 22.8236 11.9831 23.9195C11.7712 24.3281 11.5202 24.7102 11.232 25.0284L11.2317 25.0287C10.9019 25.3932 10.5318 25.6601 10.1442 25.772C9.44543 25.9738 8.70458 25.6782 8.34158 25.0652L8.34126 25.0647C7.98092 24.4573 8.08282 23.6839 8.59572 23.1853C8.74295 23.0425 8.94449 22.9013 9.17709 22.7382C9.28 22.6661 9.38898 22.5897 9.50204 22.5071L9.50256 22.5067C9.86874 22.2385 10.2445 21.9272 10.574 21.5187L10.5755 21.5168C10.7411 21.3103 10.8941 21.0796 11.0205 20.8279Z" stroke="white" stroke-width="1.65517"/>
<path d="M11.2313 18.8023L11.2321 18.8032C12.5451 20.2593 13.302 22.1234 13.3719 24.0752L13.3768 24.2115L13.3176 24.3344C13.0468 24.8963 12.6966 25.466 12.2545 25.9541C11.8194 26.435 11.2416 26.8908 10.5269 27.0972L10.5268 27.0972C9.22946 27.4718 7.84084 26.9265 7.15481 25.7681L11.2313 18.8023ZM11.2313 18.8023C11.0685 18.6225 10.8883 18.4393 10.6815 18.2716L9.85877 18.9805C9.98828 19.2001 10.0157 19.4687 9.9456 19.7772M11.2313 18.8023L9.9456 19.7772M9.9456 19.7772C9.87582 20.0825 9.71749 20.3819 9.50003 20.6532C9.27704 20.9295 9.00799 21.1592 8.68757 21.3939L9.01357 21.839M9.9456 19.7772L9.92992 20.999C9.66424 21.3283 9.35243 21.5908 9.01357 21.839M9.01357 21.839C8.93643 21.8954 8.85009 21.9559 8.75987 22.0192C8.50401 22.1985 8.21685 22.3998 8.01926 22.5915C7.23336 23.3551 7.07268 24.5483 7.62949 25.4869L7.15477 25.7681C6.46727 24.6088 6.66713 23.136 7.63478 22.1958L7.63507 22.1955C7.86784 21.9697 8.21664 21.7254 8.47831 21.5422C8.55824 21.4862 8.63004 21.436 8.68792 21.3936L9.01357 21.839Z" fill="white" stroke="#0057CE" stroke-width="1.10345"/>
</svg>
